#!OML:ASF F:\VICON\USERDATA\INSTALL\rory3\rory3.ASF
:FULLY-SPECIFIED
:DEGREES
752
root -6.60834 19.9286 3.05397 -30.7746 -84.9189 27.001
lowerback 5.35888 2.24617 0.723025
upperback -1.90033 3.03931 -0.237727
thorax -4.92132 1.47823 -0.939563
lowerneck -12.3222 3.46717 -5.9574
upperneck 0.57379 5.26825 2.9617
head 2.08607 2.66453 2.29459
rclavicle -1.24986e-014 -2.98177e-015
rhumerus 92.622 -20.6395 -47.4522
rradius 27.2622
rwrist 1.71178
rhand -26.8606 -9.58392
rfingers 7.12502
rthumb -0.285449 -39.5635
lclavicle -1.24986e-014 -2.98177e-015
lhumerus 86.429 25.3931 46.5669
lradius 24.6086
lwrist 21.1372
lhand -10.2427 28.1964
lfingers 7.12502
lthumb 15.7499 57.5756
rfemur -5.25771 22.7864 14.9794
rtibia 34.72
rfoot 10.4715 -10.2771
rtoes -2.71202
lfemur -4.21751 -6.256 -19.4049
ltibia 26.7963
lfoot 13.4153 11.2987
ltoes -21.7843
753
root -6.61263 19.9405 3.09671 -30.2417 -84.9412 26.5713
lowerback 5.17265 2.26479 0.616549
upperback -1.93279 3.06154 -0.09688
thorax -4.86234 1.49527 -0.72921
lowerneck -12.4614 3.48627 -5.89584
upperneck 0.842222 5.2911 3.05233
head 2.20023 2.6775 2.32734
rclavicle 3.72473e-014 1.59028e-015
rhumerus 93.2007 -20.4805 -47.8529
rradius 26.5413
rwrist 0.65659
rhand -26.1664 -9.5923
rfingers 7.12502
rthumb 0.385022 -39.5717
lclavicle 3.72473e-014 1.59028e-015
lhumerus 87.6108 25.1093 48.2732
lradius 23.7772
lwrist 20.905
lhand -9.64005 28.4934
lfingers 7.12502
lthumb 16.3302 57.8259
rfemur -5.67291 22.2928 14.7147
rtibia 34.8685
rfoot 11.217 -9.95358
rtoes -3.98439
lfemur -4.16247 -6.09081 -19.4
ltibia 26.4717
lfoot 13.6962 11.0718
ltoes -21.6956
754
root -6.61543 19.9524 3.13486 -28.6755 -84.9606 25.0659
lowerback 5.07956 2.25107 0.645384
upperback -1.97134 3.04901 0.00124215
thorax -4.85377 1.48967 -0.639706
lowerneck -12.584 3.49357 -5.91793
upperneck 1.06928 5.30148 3.30323
head 2.29334 2.69027 2.42688
rclavicle -5.91384e-015 2.78299e-015
rhumerus 93.7595 -20.3432 -48.3038
rradius 25.8198
rwrist -0.326034
rhand -25.436 -9.99873
rfingers 7.12502
rthumb 1.09046 -39.9757
lclavicle -5.91384e-015 2.78299e-015
lhumerus 88.8621 24.7833 50.0019
lradius 22.9423
lwrist 20.6823
lhand -9.15341 28.6095
lfingers 7.12502
lthumb 16.7988 57.9028
rfemur -5.95248 21.9919 14.6607
rtibia 35.0336
rfoot 11.5615 -9.74959
rtoes -4.82904
lfemur -4.10219 -6.07722 -19.2976
ltibia 26.2229
lfoot 13.8652 10.9953
ltoes -21.1518
755
root -6.61839 19.964 3.17065 -27.8296 -84.9871 24.2496
lowerback 5.01569 2.28532 0.593677
upperback -1.98179 3.09381 0.0730223
thorax -4.83459 1.51474 -0.53824
lowerneck -12.7043 3.438 -5.97367
upperneck 1.20176 5.23141 3.55379
head 2.35807 2.66373 2.52625
rclavicle -2.80783e-015 3.18055e-015
rhumerus 94.4769 -20.1177 -49.1722
rradius 24.9596
rwrist -0.765513
rhand -25.2324 -10.5993
rfingers 7.12502
rthumb 1.28706 -40.5751
lclavicle -2.80783e-015 3.18055e-015
lhumerus 90.1442 24.3755 51.7165
lradius 22.1354
lwrist 20.5591
lhand -8.68967 28.6707
lfingers 7.12502
lthumb 17.2451 57.9255
rfemur -6.13907 21.8816 14.6093
rtibia 35.1776
rfoot 11.4196 -9.73631
rtoes -4.50572
lfemur -4.04149 -6.05723 -19.2334
ltibia 26.0565
lfoot 13.7813 11.1977
ltoes -19.3521
756
root -6.61906 19.9675 3.2019 -28.9369 -84.912 25.396
lowerback 4.99783 2.31283 0.266685
upperback -2.01432 3.11004 0.124657
thorax -4.87857 1.53346 -0.304283
lowerneck -12.6831 3.39908 -6.05307
upperneck 1.17798 5.18269 3.72104
head 2.3439 2.64535 2.59337
rclavicle -2.06736e-014 1.59028e-015
rhumerus 95.1964 -19.7614 -50.2729
rradius 24.2082
rwrist -1.09469
rhand -25.2867 -11.0564
rfingers 7.12502
rthumb 1.23469 -41.0325
lclavicle -2.06736e-014 1.59028e-015
lhumerus 91.4242 23.9364 53.5642
lradius 21.3089
lwrist 20.2744
lhand -8.19302 28.9917
lfingers 7.12502
lthumb 17.7231 58.204
rfemur -6.31247 21.8792 14.3934
rtibia 35.3234
rfoot 10.8577 -9.77108
rtoes -4.53611
lfemur -4.01894 -5.91957 -19.3426
ltibia 25.9146
lfoot 13.6601 11.4309
ltoes -16.7944
757
root -6.61835 19.97 3.22984 -29.4522 -84.8229 25.9382
lowerback 4.97667 2.31983 0.0401425
upperback -2.02157 3.10439 0.142886
thorax -4.8873 1.53805 -0.157953
lowerneck -12.7848 3.37589 -6.01343
upperneck 1.2596 5.14641 3.82008
head 2.39143 2.63105 2.62404
rclavicle -2.127e-014 -4.37326e-015
rhumerus 96.2265 -19.2491 -52.0752
rradius 23.3051
rwrist -1.09911
rhand -25.0035 -10.7589
rfingers 7.12502
rthumb 1.50823 -40.7333
lclavicle -2.127e-014 -4.37326e-015
lhumerus 92.8698 23.4081 55.5752
lradius 20.4782
lwrist 19.7721
lhand -7.94971 29.3705
lfingers 7.12502
lthumb 17.9572 58.5615
rfemur -6.44802 21.8497 14.2648
rtibia 35.4692
rfoot 10.1997 -9.44789
rtoes -5.82962
lfemur -3.98574 -5.98705 -19.4502
ltibia 25.7755
lfoot 13.7441 11.2983
ltoes -16.4704
758
root -6.61468 19.969 3.25835 -29.0312 -84.7355 25.479
lowerback 5.04522 2.32247 -0.0431269
upperback -2.01179 3.10288 0.155585
thorax -4.92124 1.53998 -0.101142
lowerneck -12.9393 3.34469 -5.9
upperneck 1.44531 5.09032 3.92872
head 2.48681 2.60759 2.64857
rclavicle 6.7711e-014 9.54166e-015
rhumerus 97.4407 -18.6908 -54.1839
rradius 22.3405
rwrist -0.980317
rhand -24.2546 -10.4277
rfingers 7.12502
rthumb 2.23146 -40.3957
lclavicle 6.7711e-014 9.54166e-015
lhumerus 94.3116 22.7461 57.6638
lradius 19.7252
lwrist 19.0407
lhand -7.93177 29.4152
lfingers 7.12502
lthumb 17.9745 58.6046
rfemur -6.49669 21.815 14.2816
rtibia 35.6082
rfoot 9.6658 -8.74201
rtoes -7.19157
lfemur -3.88548 -6.06347 -19.5001
ltibia 25.6365
lfoot 13.9239 10.9009
ltoes -17.3813
759
root -6.60953 19.9636 3.28514 -28.6439 -84.5413 25.0148
lowerback 5.20136 2.28542 -0.151066
upperback -2.01657 3.04482 0.131181
thorax -5.0192 1.5138 -0.0678582
lowerneck -13.0078 3.29304 -5.95159
upperneck 1.56102 5.01977 4.19449
head 2.53728 2.58214 2.75092
rclavicle -4.50247e-014 -1.07344e-014
rhumerus 98.4497 -18.1887 -56.1299
rradius 21.6919
rwrist -1.40825
rhand -23.3945 -10.8202
rfingers 7.12502
rthumb 3.06216 -40.778
lclavicle -4.50247e-014 -1.07344e-014
lhumerus 95.4363 22.1591 59.3073
lradius 19.1793
lwrist 18.6793
lhand -7.58836 29.336
lfingers 7.12502
lthumb 18.3049 58.4947
rfemur -6.48237 21.7748 14.3066
rtibia 35.7026
rfoot 9.22759 -7.49659
rtoes -9.16565
lfemur -3.79309 -5.9163 -19.5792
ltibia 25.5462
lfoot 14.1898 10.2652
ltoes -18.734
760
root -6.60701 19.9607 3.30614 -28.1098 -84.3257 24.4272
lowerback 5.32823 2.22289 -0.356806
upperback -2.048 2.94686 0.145684
thorax -5.13521 1.47178 0.0649272
lowerneck -12.9729 3.2399 -6.07319
upperneck 1.61311 4.95323 4.4557
head 2.54558 2.55793 2.85951
rclavicle 1.45858e-014 1.19271e-015
rhumerus 99.2441 -17.6556 -57.6356
rradius 21.162
rwrist -1.95416
rhand -22.7291 -11.4015
rfingers 7.12502
rthumb 3.70471 -41.3491
lclavicle 1.45858e-014 1.19271e-015
lhumerus 96.2487 21.6806 60.6123
lradius 18.796
lwrist 18.4427
lhand -7.26519 29.5429
lfingers 7.12502
lthumb 18.6158 58.6721
rfemur -6.46992 21.8053 14.3596
rtibia 35.7512
rfoot 8.51106 -5.87045
rtoes -11.7379
lfemur -3.76113 -5.86196 -19.6277
ltibia 25.5327
lfoot 14.0894 10.1623
ltoes -18.5708
761
root -6.60519 19.9567 3.32607 -27.3324 -84.1428 23.5714
lowerback 5.43822 2.16691 -0.567838
upperback -2.05094 2.86043 0.234665
thorax -5.21551 1.43734 0.27852
lowerneck -12.8911 3.20115 -6.21953
upperneck 1.65155 4.91346 4.5998
head 2.54063 2.54202 2.93216
rclavicle 2.44008e-014 1.03368e-014
rhumerus 99.8138 -17.1357 -58.4559
rradius 20.6909
rwrist -2.25311
rhand -23.2283 -12.2889
rfingers 7.12502
rthumb 3.22258 -42.2443
lclavicle 2.44008e-014 1.03368e-014
lhumerus 96.8376 21.2987 61.5968
lradius 18.4292
lwrist 18.0371
lhand -7.37503 29.5374
lfingers 7.12502
lthumb 18.5101 58.6767
rfemur -6.43952 21.6522 14.466
rtibia 35.7666
rfoot 8.0123 -4.11169
rtoes -14.4051
lfemur -3.72878 -5.87118 -19.6376
ltibia 25.5903
lfoot 13.7727 10.3618
ltoes -16.9532
